<svg xmlns="http://www.w3.org/2000/svg" width="478.67" height="383.237">
  <path fill="#ffb6b6" d="M190.976 178.61c-4.853 4.573-11.146 5.776-14.056 2.688-2.91-3.089-1.334-9.299 3.52-13.871 2.124-2.002 4.524-3.358 6.796-3.99l20.807-19.117 8.763 9.955-21.442 17.789c-.767 2.23-2.263 4.545-4.388 6.547ZM300.444 375.337l-10.031-.001-4.771-38.69 14.804.001-.002 38.69z"/>
  <path fill="#2f2e41" d="M266.078 375.11c-.313.525-.477 2.223-.477 2.835a3.404 3.404 0 0 0 3.404 3.404h31.064a2.322 2.322 0 0 0 2.322-2.322v-1.294s1.537-3.887-1.627-8.677c0 0-3.932 3.75-9.808-2.125l-1.733-3.139-12.542 9.173-6.952.856c-1.52.187-2.869-.03-3.651 1.288Z"/>
  <path fill="#ffb6b6" d="m370.814 369.639-9.863 1.831-11.756-37.168 14.556-2.702 7.063 38.039z"/>
  <path fill="#2f2e41" d="M336.984 375.691c-.211.574-.063 2.273.048 2.875a3.404 3.404 0 0 0 3.97 2.725l30.54-5.672a2.322 2.322 0 0 0 1.86-2.707l-.236-1.272s.8-4.102-3.185-8.235c0 0-3.18 4.406-10.03-.297l-2.277-2.77-10.656 11.308-6.68 2.111c-1.46.462-2.826.496-3.354 1.934ZM346.234 184.13l24.707 165.424-23 3-40-131-5 135h-21.437s-18.515-149-13.04-167c5.477-18 77.77-5.423 77.77-5.423Z"/>
  <path fill="#3b82f6" d="M292.941 51.554h24l3.5 8.5s14 8 14 11 8.5 78.5 8.5 78.5l4.5 41.5s-52.5 26.5-78.5-.5l5-46s-4-72-2-75 17-10 17-10l4-8Z"/>
  <path fill="#3b82f6" d="M285.435 64.454s7.314 11.053 5.006 15.6-38.324 48.183-38.324 48.183l-43.455 35.786-12.737-11.303 40.931-39.047 26.447-39.003a19.996 19.996 0 0 1 22.132-10.216Z"/>
  <path fill="#ffb6b6" d="M367.96 208.12c1.045 6.585-1.506 12.462-5.696 13.127-4.191.665-8.435-4.135-9.48-10.72-.457-2.883-.226-5.63.53-7.863l-4.076-27.96 13.162-1.634 2.622 27.736c1.41 1.89 2.48 4.43 2.938 7.313Z"/>
  <path fill="#3b82f6" d="M316.77 65.547s20.695-4.632 24.455 6.845 26.352 120.336 26.352 120.336l-17.21 1.906-12.926-74.58-20.67-54.507Z"/>
  <circle cx="305.764" cy="25.353" r="20.634" fill="#ffb6b6"/>
  <path fill="#2f2e41" d="M317.837 42.873c-1.323.064-3.07-.188-3.291-1.494-.157-.92.62-1.715 1.351-2.297 1.02-.81 2.095-1.567 2.972-2.531s1.55-2.184 1.567-3.487-.76-2.662-2.006-3.04-2.801.547-2.82 1.85c-1.201-1.825-1.361-4.125-1.424-6.309a119.197 119.197 0 0 1-.049-3.835c.006-1.747.05-3.493.094-5.24-.859-.044-7.79 2.564-8.79 2.564-.86 0-7.77-1.372-7.31-3.34-.135 1.258-6.726 3.524-6.86 2.865s-.627-1.353-1.298-1.314c-.707.042-1.091.826-1.33 1.493-.53 1.49-1.82 4.065-3.202 3.296-10.459-5.826-2.025-7.64-.787-10.009 1.523-2.912 3.148-5.941 5.859-7.8s4.85-4.075 6.986-1.577c5.356-3.905 10.67-2.963 16.914-.736s11.238 7.674 12.915 14.087c.77 2.94 2.828 4.23 1.294 6.852 1.691 2.268.775.985 1.11 3.794.263 2.217.042 4.556-1.057 6.5-1.174 2.075-3.253 3.519-5.475 4.384s-2.606 5.212-4.966 5.552"/>
  <path fill="#f2f2f2" d="M420.346 365.602c2.066.129 3.207-2.438 1.644-3.934l-.155-.618.062-.148c2.089-4.982 9.17-4.948 11.241.041 1.839 4.429 4.18 8.864 4.756 13.546a18.029 18.029 0 0 1-.317 6.2c4.308-9.41 6.576-19.686 6.576-30.02 0-2.597-.143-5.193-.433-7.783a71.607 71.607 0 0 0-.995-6.31c-2.306-11.277-7.298-22.019-14.5-30.99-3.462-1.892-6.35-4.85-8.093-8.396-.626-1.28-1.117-2.655-1.35-4.057.394.052 1.486-5.948 1.189-6.316.549-.834 1.531-1.248 2.131-2.06 2.982-4.044 7.091-3.338 9.236 2.157 4.582 2.312 4.627 6.148 1.815 9.836-1.789 2.347-2.034 5.523-3.604 8.035.162.207.33.407.49.614a73.591 73.591 0 0 1 7.682 12.168c-.61-4.766.29-10.508 1.826-14.21 1.749-4.217 5.025-7.768 7.91-11.414 3.467-4.38 10.574-2.468 11.185 3.083l.017.161c-.428.242-.848.499-1.258.77-2.34 1.547-1.531 5.174 1.24 5.602l.063.01a30.628 30.628 0 0 1-.807 4.579c3.702 14.316-4.29 19.53-15.701 19.764-.252.13-.498.258-.75.381a73.187 73.187 0 0 1 2.765 9.98 73.856 73.856 0 0 1 1.279 9.048c.297 3.83.27 7.68-.052 11.503l.02-.135c.82-4.212 3.106-8.145 6.426-10.87 4.945-4.063 11.933-5.56 17.268-8.825 2.568-1.572 5.86.46 5.411 3.437l-.022.143c-.794.323-1.569.697-2.318 1.117-.429.242-.849.499-1.259.77-2.34 1.547-1.53 5.174 1.241 5.602l.063.01.13.019a30.655 30.655 0 0 1-5.64 8.83c-2.314 12.496-12.255 13.682-22.89 10.043h-.006a75.092 75.092 0 0 1-5.045 14.726h-18.02c-.064-.2-.122-.407-.18-.607 1.666.103 3.345.006 4.986-.297-1.337-1.64-2.674-3.294-4.011-4.935a1.12 1.12 0 0 1-.084-.097c-.678-.84-1.363-1.673-2.041-2.512v-.001a29.99 29.99 0 0 1 .878-7.64Z"/>
  <path fill="#ccc" d="M0 382.047c0 .66.53 1.19 1.19 1.19h476.29c.66 0 1.19-.53 1.19-1.19 0-.66-.53-1.19-1.19-1.19H1.19c-.66 0-1.19.53-1.19 1.19Z"/>
  <path fill="#3f3d56" d="m107.49 273.849-.137-1.997a86.286 86.286 0 0 0 11.626-1.588l.406 1.959a88.532 88.532 0 0 1-11.896 1.626Zm-12.02-.178a109.283 109.283 0 0 1-11.857-1.718l.398-1.96c3.76.762 7.675 1.33 11.638 1.686l-.18 1.992Zm35.479-4.687-.671-1.885a85.794 85.794 0 0 0 10.76-4.683l.921 1.775a87.906 87.906 0 0 1-11.01 4.793Zm-58.922-.126a89.626 89.626 0 0 1-11.1-4.562l.883-1.793a87.734 87.734 0 0 0 10.853 4.459l-.636 1.896Zm-21.47-10.622a82.114 82.114 0 0 1-9.384-7.5l1.36-1.468a80.039 80.039 0 0 0 9.155 7.318l-1.13 1.65Zm101.65-.293-1.155-1.633a86.77 86.77 0 0 0 9.097-7.412l1.365 1.461a88.806 88.806 0 0 1-9.307 7.584ZM32.985 241.927a83.728 83.728 0 0 1-6.818-9.9l1.725-1.013a81.71 81.71 0 0 0 6.653 9.663l-1.56 1.25Zm136.726-.341-1.55-1.264a86.59 86.59 0 0 0 6.776-9.586l1.708 1.041a88.695 88.695 0 0 1-6.934 9.809ZM20.82 221.272a90.088 90.088 0 0 1-3.836-11.379l1.934-.511a88.02 88.02 0 0 0 3.75 11.125l-1.848.765Zm161.36-.156-1.834-.799a85.476 85.476 0 0 0 3.931-11.064l1.926.539a87.557 87.557 0 0 1-4.023 11.324ZM14.676 198.111a94.342 94.342 0 0 1-.776-11.977l2-.002c.004 3.91.26 7.855.76 11.723l-1.984.256Zm173.957-.079-1.982-.27c.525-3.854.79-7.793.79-11.708v-.181h2v.173a89.18 89.18 0 0 1-.808 11.986ZM16.64 174.407l-1.985-.254a92.899 92.899 0 0 1 2.286-11.784l1.935.507a90.838 90.838 0 0 0-2.236 11.531Zm169.987-.24a85.92 85.92 0 0 0-2.399-11.485l1.925-.542a87.909 87.909 0 0 1 2.456 11.754l-1.982.274ZM22.605 151.747l-1.85-.762a86.962 86.962 0 0 1 5.326-10.76l1.727 1.01a84.769 84.769 0 0 0-5.203 10.512Zm157.672-.113a86.144 86.144 0 0 0-5.423-10.398l1.706-1.044a88.052 88.052 0 0 1 5.55 10.64l-1.833.802Zm-12.213-19.965a86.828 86.828 0 0 0-8.026-8.562l1.364-1.464a88.92 88.92 0 0 1 8.211 8.76l-1.549 1.266Zm-133.625-.105-1.564-1.247a82.045 82.045 0 0 1 8.162-8.819l1.364 1.463a80.007 80.007 0 0 0-7.962 8.603Zm116.487-15.855a86.404 86.404 0 0 0-10.035-6.093l.919-1.776a88.396 88.396 0 0 1 10.268 6.234l-1.152 1.635Zm-99.387-.086-1.135-1.647a84.422 84.422 0 0 1 10.355-6.083l.889 1.792a82.283 82.283 0 0 0-10.109 5.938Zm20.952-10.421-.64-1.895a97.71 97.71 0 0 1 11.581-3.115l.401 1.96a95.715 95.715 0 0 0-11.342 3.05Zm57.626-.25a85.668 85.668 0 0 0-11.314-3.144l.402-1.96a87.667 87.667 0 0 1 11.58 3.217l-.668 1.886Zm-34.649-4.506-.182-1.992c2.002-.183 4.06-.317 6.117-.398 1.946-.023 3.963.063 5.902.19l-.131 1.997a87.483 87.483 0 0 0-5.732-.188c-1.983.079-4.006.211-5.974.39Z"/>
  <circle cx="34.874" cy="240.876" r="27" fill="#3b82f6"/>
  <path fill="#fff" d="M24.307 231.823c0-.836.695-1.514 1.552-1.514h18.03c.858 0 1.552.678 1.552 1.514v18.106c0 .836-.694 1.514-1.552 1.514H25.86c-.857 0-1.552-.678-1.552-1.514v-18.106ZM30.837 248v-9.544h-3.172v9.544h3.171Zm-1.586-10.847c1.106 0 1.794-.732 1.794-1.649-.02-.936-.687-1.648-1.773-1.648s-1.795.713-1.795 1.648c0 .917.689 1.649 1.753 1.649h.021ZM35.734 248v-5.33c0-.285.021-.57.106-.774.228-.57.75-1.16 1.627-1.16 1.148 0 1.606.875 1.606 2.159V248h3.172v-5.474c0-2.932-1.564-4.295-3.651-4.295-1.683 0-2.437.924-2.86 1.575v.033h-.02l.02-.033v-1.35h-3.17c.04.896 0 9.544 0 9.544h3.17Z"/>
  <circle cx="114.607" cy="99.515" r="27" fill="#3b82f6"/>
  <path fill="#fff" fill-rule="evenodd" d="M114.951 94.624c1.477-1.998 3.11-3.57 5.199-3.57 3.942 0 7.19 5.018 7.191 10.993 0 3.645-1.57 5.93-4.388 5.93-2.456 0-3.812-1.379-6.246-5.45l-1.062-1.788-.188-.313a87.49 87.49 0 0 0-.843-1.396l-1.875 3.31c-2.663 4.656-4.162 5.637-6.244 5.637-2.894 0-4.623-2.253-4.623-5.824 0-5.707 3.176-11.1 7.319-11.1.508 0 .995.063 1.47.195.494.137.973.35 1.454.648.918.571 1.837 1.456 2.836 2.728Zm2.413 3.54a51.708 51.708 0 0 0-1.157-1.804l-.01-.012c1.346-2.078 2.457-3.11 3.776-3.11 2.743 0 4.938 4.038 4.938 8.997 0 1.891-.621 2.988-1.903 2.988-1.23 0-1.817-.812-4.154-4.568l-1.491-2.491h.001Zm-7.778-4.315c1.154.159 2.204 1.009 3.724 3.185a337.587 337.587 0 0 0-2.602 4.047c-2.16 3.384-2.907 4.144-4.108 4.144-1.237 0-1.974-1.086-1.974-3.025 0-4.141 2.066-8.378 4.53-8.378.145 0 .288.01.43.028v-.001Z"/>
  <circle cx="27.72" cy="142.223" r="27" fill="#3b82f6"/>
  <path fill="#fff" d="M23.362 151.747c8.847 0 13.687-7.33 13.687-13.676 0-.205 0-.413-.01-.619a9.795 9.795 0 0 0 2.402-2.493 9.756 9.756 0 0 1-2.767.759 4.837 4.837 0 0 0 2.12-2.663c-.945.56-1.98.953-3.058 1.162a4.815 4.815 0 0 0-8.2 4.387 13.663 13.663 0 0 1-9.915-5.024 4.82 4.82 0 0 0 1.492 6.42 4.869 4.869 0 0 1-2.177-.597v.066a4.818 4.818 0 0 0 3.856 4.715c-.413.113-.84.17-1.267.168-.302.001-.603-.027-.9-.083a4.81 4.81 0 0 0 4.494 3.336 9.653 9.653 0 0 1-5.978 2.061 9.262 9.262 0 0 1-1.143-.066 13.69 13.69 0 0 0 7.364 2.147Z"/>
  <circle cx="124.926" cy="270.536" r="27" fill="#3b82f6"/>
  <path fill="#fff" d="M124.926 259.02c-3.125 0-3.518.015-4.746.07-1.228.057-2.064.25-2.797.535a5.638 5.638 0 0 0-2.04 1.328 5.653 5.653 0 0 0-1.328 2.04c-.285.731-.48 1.569-.536 2.793-.054 1.23-.069 1.622-.069 4.751 0 3.127.015 3.518.07 4.746.057 1.226.25 2.063.535 2.795.295.757.688 1.4 1.329 2.04a5.62 5.62 0 0 0 2.038 1.329c.734.285 1.569.479 2.795.535 1.23.055 1.621.07 4.749.07s3.518-.015 4.747-.07c1.225-.058 2.064-.25 2.797-.535a5.637 5.637 0 0 0 2.038-1.329 5.656 5.656 0 0 0 1.329-2.04c.283-.732.478-1.569.535-2.795.055-1.228.07-1.62.07-4.747s-.015-3.52-.07-4.749c-.057-1.225-.252-2.063-.535-2.794a5.651 5.651 0 0 0-1.329-2.04 5.63 5.63 0 0 0-2.04-1.328c-.734-.285-1.571-.48-2.796-.536-1.23-.054-1.62-.069-4.749-.069h.003Zm-1.032 2.076h1.033c3.075 0 3.44.01 4.653.066 1.122.05 1.733.24 2.139.396.536.209.92.46 1.324.862s.652.786.86 1.324c.159.405.346 1.015.396 2.138.057 1.213.068 1.578.068 4.65s-.011 3.44-.068 4.653c-.05 1.123-.238 1.732-.395 2.138-.185.5-.48.952-.863 1.322a3.558 3.558 0 0 1-1.324.861c-.403.159-1.013.346-2.137.398-1.214.054-1.578.067-4.653.067s-3.44-.013-4.653-.067c-1.123-.052-1.732-.24-2.138-.398a3.567 3.567 0 0 1-1.324-.86 3.57 3.57 0 0 1-.864-1.325c-.157-.404-.345-1.015-.396-2.137-.054-1.214-.066-1.578-.066-4.654 0-3.075.012-3.437.066-4.65.052-1.124.24-1.734.398-2.14.208-.537.459-.921.862-1.324a3.558 3.558 0 0 1 1.324-.86c.406-.16 1.015-.346 2.138-.398 1.062-.05 1.474-.064 3.62-.065v.003Zm7.18 1.911a1.382 1.382 0 0 0 0 2.764 1.382 1.382 0 0 0 0-2.764Zm-6.147 1.616a5.915 5.915 0 1 0-.184 11.827 5.915 5.915 0 0 0 .184-11.827Zm0 2.074a3.839 3.839 0 0 1 .004 7.678h-.004a3.839 3.839 0 1 1 0-7.678Z"/>
</svg>